PathFileType	4	(X/Y/Z)	C:\Users\86182\Documents\cortex\Trimmed_M3_L7.trc
DataRate	CameraRate	NumFrames	NumMarkers	Units	OrigDataRate	OrigDataStartFrame	OrigNumFrames
100.00	100.00	       70	2	mm	100.00	721	       901
Frame#	Time	gripper			box			
		X1	Y1	Z1	X2	Y2	Z2	

721	7.200	273.47614	149.81390	292.83191	274.84625	148.05234	157.11447	
722	7.210	273.47305	149.81377	292.83420	274.86227	148.06528	157.11032	
723	7.220	273.46921	149.81386	292.83658	274.85867	148.03323	157.11005	
724	7.230	273.46948	149.81435	292.83569	274.86523	148.05969	157.11023	
725	7.240	273.45599	149.81525	292.84326	274.84512	148.06012	157.10657	
726	7.250	273.47943	149.81418	292.82935	274.84625	148.05234	157.11447	
727	7.260	273.47171	149.81419	292.83441	274.84552	148.05687	157.11423	
728	7.270	273.47253	149.81412	292.83398	274.81097	148.03189	157.12294	
729	7.280	273.44559	149.81937	292.84399	274.86890	148.06206	157.10934	
730	7.290	273.44577	149.81506	292.85031	274.81512	148.00447	157.12454	
731	7.300	273.43524	149.81673	292.85480	274.84406	148.02835	157.11699	
732	7.310	273.40750	149.81868	292.87024	274.82791	148.04041	157.11897	
733	7.320	273.43573	149.81871	292.85150	274.83304	148.04626	157.11751	
734	7.330	273.42984	149.82043	292.85284	274.81918	148.04468	157.12024	
735	7.340	273.42322	149.82103	292.85632	274.82416	148.02547	157.12100	
736	7.350	273.44928	149.81548	292.84735	274.85138	148.04568	157.11407	
737	7.360	273.43344	149.81984	292.85135	274.87097	148.05869	157.10738	
738	7.370	273.41550	149.82217	292.85971	274.85574	148.05603	157.11235	
739	7.380	273.42303	149.82185	292.85519	274.84247	148.04767	157.11374	
740	7.390	273.44974	149.81746	292.84412	274.82642	148.03696	157.11957	
741	7.400	273.43787	149.82149	292.84595	274.81186	148.03990	157.12206	
742	7.410	273.41626	149.82329	292.85757	274.81918	148.04468	157.12024	
743	7.420	273.40359	149.82507	292.86325	274.82791	148.04041	157.11897	
744	7.430	273.40613	149.82542	292.86108	274.83673	148.04866	157.11659	
745	7.440	273.39957	149.82600	292.86456	274.84702	148.04782	157.11472	
746	7.450	273.40845	149.82213	292.86447	274.78964	148.02544	157.12753	
747	7.460	273.38278	149.82954	292.87039	274.81570	148.02547	157.12685	
748	7.470	273.41296	149.82591	292.85583	274.81757	148.02867	157.12196	
749	7.480	273.46240	149.81775	292.83530	274.78473	148.00745	157.12910	
750	7.490	273.41864	149.81998	292.86093	274.81674	148.02065	157.12282	
751	7.500	273.40448	149.82185	292.86749	274.82639	148.04715	157.11682	
752	7.510	273.46948	149.81435	292.83569	274.79919	148.02921	157.12540	
753	7.520	273.45889	149.81488	292.84189	274.84772	148.03075	157.11607	
754	7.530	273.43091	149.81853	292.85498	274.83002	148.02679	157.11978	
755	7.540	273.47910	149.81615	292.82663	274.82565	148.03406	157.11903	
756	7.550	273.46265	149.81578	292.83807	274.80490	148.02309	157.12393	
757	7.560	273.42776	149.82071	292.85379	274.85797	148.05496	157.11201	
758	7.570	273.46051	149.81494	292.84073	274.82101	148.02640	157.11780	
759	7.580	273.43097	149.82181	292.85004	274.82388	148.04868	157.11253	
760	7.590	273.39941	149.82684	292.86340	274.79160	148.02745	157.13260	
761	7.600	273.43320	149.82262	292.84735	274.80814	148.03748	157.12297	
762	7.610	273.44434	149.82185	292.84109	274.77747	148.01010	157.13118	
763	7.620	273.41846	149.82082	292.85980	274.81757	148.02867	157.12196	
764	7.630	273.43591	149.81552	292.85614	274.80661	148.03401	157.12358	
765	7.640	273.39252	149.82480	292.87103	274.80814	148.03748	157.12297	
766	7.650	273.47464	149.81645	292.82910	274.81186	148.03990	157.12206	
767	7.660	273.46027	149.81693	292.83792	274.82172	148.04463	157.11421	
768	7.670	273.47247	149.81659	292.83035	274.82343	148.03001	157.12074	
769	7.680	273.48947	149.81302	292.82440	274.86301	148.06076	157.11057	
770	7.690	273.47910	149.81615	292.82663	274.81235	148.02792	157.12210	
771	7.700	273.49829	149.81244	292.81946	274.84683	148.05061	157.11172	
772	7.710	273.48285	149.81346	292.82816	274.85623	148.04222	157.10599	
773	7.720	273.46570	149.81801	292.83270	274.83713	148.04968	157.11087	
774	7.730	273.44678	149.82281	292.84235	274.83655	148.03891	157.11469	
775	7.740	273.40936	149.82301	292.86255	274.81186	148.03990	157.12206	
776	7.750	273.43561	149.82259	292.84579	274.81619	148.03778	157.12144	
777	7.760	273.39606	149.82755	292.86459	274.84842	148.03876	157.11525	
778	7.770	273.42865	149.81868	292.85626	274.89453	148.05409	157.10051	
779	7.780	273.43277	149.82005	292.85147	274.82135	148.04362	157.11993	
780	7.790	273.42984	149.82043	292.85284	274.86453	148.05174	157.11105	
781	7.800	273.41275	149.82541	292.85672	274.83011	148.03935	157.11865	
782	7.810	273.47586	149.81587	292.82916	274.87326	148.05992	157.10870	
783	7.820	273.42307	149.82474	292.85089	274.84180	148.04709	157.11484	
784	7.830	273.43320	149.82262	292.84735	274.85577	148.06847	157.11127	
785	7.840	273.44400	149.81931	292.84515	274.84845	148.06371	157.11305	
786	7.850	273.46817	149.81590	292.83423	274.82425	148.03801	157.11989	
787	7.860	273.46503	149.81578	292.83649	274.81491	148.04320	157.11191	
788	7.870	273.44794	149.82529	292.86368	274.80292	148.03162	157.12448	
789	7.880	273.46405	149.81438	292.83923	274.83447	148.03722	157.11801	
790	7.890	273.49478	149.81720	292.83188	274.82288	148.04707	157.11934	
